<svg xmlns="http://www.w3.org/2000/svg" xmlns:xlink="http://www.w3.org/1999/xlink" width="189.668" height="62.089" viewBox="0 0 189.668 62.089">
  <defs>
    <clipPath id="clip-path">
      <rect id="Rectángulo_190" data-name="Rectángulo 190" width="189.668" height="62.089" fill="none"/>
    </clipPath>
  </defs>
  <g id="Grupo_2851" data-name="Grupo 2851" transform="translate(-174.91 -863)">
    <g id="Grupo_2851-2" data-name="Grupo 2851" transform="translate(174.91 863)">
      <path id="Trazado_5702" data-name="Trazado 5702" d="M14.391,59.282l-4.108,10.3h-.206l-4.107-10.3H0V77.4H4.693V66.817h.138L8.766,77.259H11.6L15.529,66.89h.138V77.4h4.693V59.282Z" transform="translate(0 -16.148)" fill="#e93116"/>
      <path id="Trazado_5703" data-name="Trazado 5703" d="M30.937,59.282h5.971l4.107,10.3h.206l4.108-10.3H51.3V77.4H46.6V66.89h-.138L42.533,77.259H39.7L35.769,66.816H35.63V77.4H30.937Z" transform="translate(-8.428 -16.148)" fill="#e93116"/>
      <path id="Trazado_5704" data-name="Trazado 5704" d="M6.01,9.233,0,43.371H14.1l2.753-15.76,1.181,4.338L16.239,43.371H18.7l.984-5.57,1.6,5.57,15.226,0L40.951,27.6l.773,4.443L38.714,43.371h2.43l1.588-5.549.979,5.549H57.8L51.783,9.245H34.7L31.309,22.623,28.552,11.639H25.958l4.061,16.126-1.094,4.3-5.7-22.832Z" transform="translate(0 -2.515)" fill="#e93116"/>
      <path id="Trazado_5705" data-name="Trazado 5705" d="M82.971,44.275H80.24L74.785,12.552h2.593Z" transform="translate(-20.372 -3.419)" fill="#e93116"/>
      <g id="Grupo_2849" data-name="Grupo 2849" transform="translate(0 0)">
        <g id="Grupo_2848" data-name="Grupo 2848" clip-path="url(#clip-path)">
          <path id="Trazado_5706" data-name="Trazado 5706" d="M80.164,66.811l-.011-.085H70.5v3.819h4.6a4.849,4.849,0,0,1-4.292,2.663c-2.536,0-4.308-2.111-4.308-5.135s1.772-5.135,4.308-5.135a4.8,4.8,0,0,1,3.775,1.86l.029.036h5.112l-.044-.128a9.5,9.5,0,0,0-8.872-6.5,9.881,9.881,0,1,0,9.435,9.871,10.271,10.271,0,0,0-.079-1.262" transform="translate(-16.686 -15.855)" fill="#e93116"/>
          <path id="Trazado_5707" data-name="Trazado 5707" d="M116.489,67.878h-2.873V79.766h7.819V77.432h-4.945Z" transform="translate(-30.95 -18.49)" fill="#e93116"/>
          <path id="Trazado_5708" data-name="Trazado 5708" d="M129.911,67.878,125.9,79.765h3.088l.782-2.5h4.105l.784,2.5h3.088l-4.01-11.887Zm.544,7.209,1.321-4.214h.092l1.323,4.214Z" transform="translate(-34.296 -18.49)" fill="#e93116"/>
          <path id="Trazado_5709" data-name="Trazado 5709" d="M151.7,73.952a4.27,4.27,0,0,0-1.137-.76,7.226,7.226,0,0,0-1.559-.511l-1.022-.232a5.856,5.856,0,0,1-.732-.2,2.5,2.5,0,0,1-.554-.27,1.1,1.1,0,0,1-.349-.357.842.842,0,0,1-.108-.47.981.981,0,0,1,.192-.578,1.218,1.218,0,0,1,.557-.4,2.565,2.565,0,0,1,.928-.146,2.064,2.064,0,0,1,1.3.357,1.36,1.36,0,0,1,.514,1h2.751a3.5,3.5,0,0,0-.574-1.951,3.721,3.721,0,0,0-1.582-1.308,5.717,5.717,0,0,0-2.4-.467,5.927,5.927,0,0,0-2.409.464,3.928,3.928,0,0,0-1.654,1.294,3.19,3.19,0,0,0-.592,1.932,2.714,2.714,0,0,0,.883,2.145,5.392,5.392,0,0,0,2.432,1.146l1.242.29a6.835,6.835,0,0,1,1.071.328,1.628,1.628,0,0,1,.624.418.892.892,0,0,1,.209.578,1.025,1.025,0,0,1-.226.638,1.438,1.438,0,0,1-.63.436,2.766,2.766,0,0,1-.99.156,2.9,2.9,0,0,1-1.112-.2,1.69,1.69,0,0,1-.752-.581,1.8,1.8,0,0,1-.307-.958h-2.752a4.125,4.125,0,0,0,.633,2.3,3.678,3.678,0,0,0,1.724,1.358,6.937,6.937,0,0,0,2.6.447,6.716,6.716,0,0,0,2.539-.43,3.53,3.53,0,0,0,1.617-1.236,3.324,3.324,0,0,0,.569-1.932,3.411,3.411,0,0,0-.244-1.289,2.959,2.959,0,0,0-.7-1.016" transform="translate(-38.944 -18.429)" fill="#e93116"/>
          <path id="Trazado_5710" data-name="Trazado 5710" d="M171.225,73.967a2.911,2.911,0,0,0-1.332-.389v-.116a3.129,3.129,0,0,0,1.155-.487,2.49,2.49,0,0,0,.783-.88,2.516,2.516,0,0,0,.285-1.21,2.758,2.758,0,0,0-.455-1.572,2.948,2.948,0,0,0-1.358-1.057,5.828,5.828,0,0,0-2.237-.377h-4.957V79.765h5.335a5.255,5.255,0,0,0,2.24-.433,3.291,3.291,0,0,0,1.41-1.184,3.071,3.071,0,0,0,.488-1.709,2.878,2.878,0,0,0-.371-1.489,2.7,2.7,0,0,0-.984-.984m-5.245-3.807h1.637a1.765,1.765,0,0,1,1.143.343,1.143,1.143,0,0,1,.424.94,1.225,1.225,0,0,1-.206.715,1.3,1.3,0,0,1-.572.452,2.1,2.1,0,0,1-.836.157H165.98Zm3.155,6.936a2.2,2.2,0,0,1-1.379.354H165.98V74.617h1.828a2.241,2.241,0,0,1,.946.183,1.409,1.409,0,0,1,.61.517,1.432,1.432,0,0,1,.215.792,1.19,1.19,0,0,1-.444.987" transform="translate(-44.431 -18.49)" fill="#e93116"/>
          <path id="Trazado_5711" data-name="Trazado 5711" d="M181.326,67.878l-4.01,11.887H180.4l.782-2.5h4.105l.784,2.5h3.088l-4.01-11.887Zm.544,7.209,1.321-4.214h.092l1.323,4.214Z" transform="translate(-48.302 -18.49)" fill="#e93116"/>
          <path id="Trazado_5712" data-name="Trazado 5712" d="M202.075,75.238h-.139l-3.018-7.36h-3.559V79.765h2.8V72.423h.1l2.856,7.267H202.9l2.856-7.226h.1v7.3h2.8V67.879h-3.558Z" transform="translate(-53.217 -18.49)" fill="#e93116"/>
          <path id="Trazado_5713" data-name="Trazado 5713" d="M224.218,73.967a2.909,2.909,0,0,0-1.332-.389v-.116a3.129,3.129,0,0,0,1.155-.487,2.49,2.49,0,0,0,.783-.88,2.516,2.516,0,0,0,.285-1.21,2.758,2.758,0,0,0-.455-1.572,2.948,2.948,0,0,0-1.358-1.057,5.828,5.828,0,0,0-2.237-.377H216.1V79.765h5.335a5.255,5.255,0,0,0,2.24-.433,3.291,3.291,0,0,0,1.41-1.184,3.071,3.071,0,0,0,.487-1.709,2.877,2.877,0,0,0-.371-1.489,2.7,2.7,0,0,0-.984-.984m-5.245-3.807h1.637a1.765,1.765,0,0,1,1.143.343,1.143,1.143,0,0,1,.424.94,1.225,1.225,0,0,1-.206.715,1.3,1.3,0,0,1-.572.452,2.1,2.1,0,0,1-.836.157h-1.591Zm3.155,6.936a2.2,2.2,0,0,1-1.379.354h-1.776V74.617H220.8a2.241,2.241,0,0,1,.946.183,1.409,1.409,0,0,1,.61.517,1.432,1.432,0,0,1,.215.792,1.19,1.19,0,0,1-.444.987" transform="translate(-58.867 -18.49)" fill="#e93116"/>
          <path id="Trazado_5714" data-name="Trazado 5714" d="M234.318,67.878l-4.01,11.887H233.4l.782-2.5h4.105l.784,2.5h3.088l-4.01-11.887Zm.544,7.209,1.321-4.214h.092l1.323,4.214Z" transform="translate(-62.737 -18.49)" fill="#e93116"/>
          <path id="Trazado_5715" data-name="Trazado 5715" d="M256.81,74.968a2.969,2.969,0,0,0-.7-1.016,4.274,4.274,0,0,0-1.138-.76,7.214,7.214,0,0,0-1.559-.511l-1.022-.232a5.749,5.749,0,0,1-.731-.2,2.489,2.489,0,0,1-.554-.269,1.12,1.12,0,0,1-.349-.357.841.841,0,0,1-.107-.47.979.979,0,0,1,.191-.578,1.222,1.222,0,0,1,.557-.4,2.57,2.57,0,0,1,.929-.146,2.06,2.06,0,0,1,1.3.357,1.358,1.358,0,0,1,.514,1h2.752a3.5,3.5,0,0,0-.575-1.951,3.707,3.707,0,0,0-1.582-1.308,5.713,5.713,0,0,0-2.4-.468,5.923,5.923,0,0,0-2.408.465,3.93,3.93,0,0,0-1.655,1.294,3.189,3.189,0,0,0-.592,1.932,2.711,2.711,0,0,0,.882,2.145,5.4,5.4,0,0,0,2.432,1.146l1.242.29a6.781,6.781,0,0,1,1.071.328,1.63,1.63,0,0,1,.624.418.892.892,0,0,1,.209.578,1.025,1.025,0,0,1-.226.638,1.43,1.43,0,0,1-.629.436,2.785,2.785,0,0,1-.99.156,2.9,2.9,0,0,1-1.112-.2,1.685,1.685,0,0,1-.752-.581,1.8,1.8,0,0,1-.308-.958h-2.751a4.132,4.132,0,0,0,.632,2.3,3.674,3.674,0,0,0,1.724,1.358,6.919,6.919,0,0,0,2.6.447,6.718,6.718,0,0,0,2.539-.43,3.528,3.528,0,0,0,1.616-1.236,3.324,3.324,0,0,0,.569-1.932,3.422,3.422,0,0,0-.244-1.289" transform="translate(-67.385 -18.429)" fill="#e93116"/>
          <path id="Trazado_5716" data-name="Trazado 5716" d="M178.518,41.8c1.953,1.139,3.072,2.453,3.072,3.854,0,4.336-10.672,7.851-23.837,7.851s-23.838-3.516-23.838-7.851a2.721,2.721,0,0,1,.026-.344,4.046,4.046,0,0,0-1.973,3.059c0,4.635,12.848,8.393,28.7,8.393s28.7-3.758,28.7-8.393c0-2.661-4.239-5.031-10.844-6.569" transform="translate(-35.948 -11.387)" fill="#47a1dd"/>
          <path id="Trazado_5717" data-name="Trazado 5717" d="M159.359,0a9.655,9.655,0,0,0-5.234,1.646,18.212,18.212,0,0,0-4.674,4.566c-.162.218-.323.438-.482.666-.14.2-.274.421-.413.629a38.978,38.978,0,0,0-3.063,5.677q-.371.839-.723,1.722c-.229.572-.45,1.161-.667,1.759s-.416,1.186-.617,1.795q-.558,1.7-1.05,3.512-.751,2.755-1.346,5.752-.5,2.54-.878,5.229a.672.672,0,0,0,.663.762h2.167a.652.652,0,0,0,.226-.041.669.669,0,0,0,.415-.459c.3-1.177.635-2.31.984-3.409A45.033,45.033,0,0,1,148.972,20c.053-.087.11-.164.164-.25.283-.452.569-.893.862-1.308a19.274,19.274,0,0,1,3.177-3.563h0c.315-.268.634-.51.956-.738.156-.111.314-.212.472-.313a10.689,10.689,0,0,1,1.389-.757,8.2,8.2,0,0,1,3.367-.75,8.311,8.311,0,0,1,3.431.775c5.171,2.328,9.579,9.8,12.248,20.122a.664.664,0,0,0,.64.5h2.167a.671.671,0,0,0,.662-.762C175.843,13.81,168.278,0,159.359,0" transform="translate(-38.192 0)" fill="#e93116"/>
          <path id="Trazado_5718" data-name="Trazado 5718" d="M125.448,21.166a34.039,34.039,0,0,1,2.146-4.114,5.684,5.684,0,0,0-1.883-.342,6.178,6.178,0,0,0-3.35,1.053,12.121,12.121,0,0,0-3.3,3.349,24.3,24.3,0,0,0-2.224,4.036q-.238.537-.463,1.1A49.972,49.972,0,0,0,113.457,37.8a.43.43,0,0,0,.423.488h1.387a.427.427,0,0,0,.41-.321,31.533,31.533,0,0,1,3.385-8.459,13.61,13.61,0,0,1,2.69-3.279c.2-.171.406-.327.612-.472A6.726,6.726,0,0,1,124,24.894c.269-.788.547-1.561.842-2.3q.294-.735.6-1.431" transform="translate(-30.905 -4.552)" fill="#50b444"/>
          <path id="Trazado_5719" data-name="Trazado 5719" d="M141.4,9.2a7.722,7.722,0,0,0-4.187,1.317,15.16,15.16,0,0,0-4.125,4.185c-.219.315-.433.648-.645.986a32.18,32.18,0,0,0-2.135,4.06q-.3.671-.579,1.377c-.185.462-.363.939-.538,1.422a64.7,64.7,0,0,0-3.108,13.017.537.537,0,0,0,.53.609h1.734a.532.532,0,0,0,.512-.4A39.432,39.432,0,0,1,133.094,25.2c.138-.225.281-.43.422-.644a16.255,16.255,0,0,1,2.94-3.454c.136-.116.276-.214.414-.319.117-.089.233-.188.351-.271.215-.152.436-.274.656-.4.392-1.18.8-2.328,1.238-3.419q.368-.918.752-1.789a41.727,41.727,0,0,1,2.95-5.549A6.927,6.927,0,0,0,141.4,9.2" transform="translate(-34.345 -2.507)" fill="#ee8b24"/>
        </g>
      </g>
    </g>
  </g>
</svg>
